<mxfile host="65bd71144e">
    <diagram id="f8ayHF-gFQ4PzkPjRYfe" name="PÃ¡gina-1">
        <mxGraphModel dx="1643" dy="2773" grid="1" gridSize="10" guides="1" tooltips="1" connect="1" arrows="1" fold="1" page="1" pageScale="1" pageWidth="827" pageHeight="1169" math="0" shadow="0">
            <root>
                <mxCell id="0"/>
                <mxCell id="1" parent="0"/>
                <mxCell id="2" style="edgeStyle=none;html=1;entryX=0.5;entryY=0;entryDx=0;entryDy=0;" edge="1" parent="1" source="3" target="9">
                    <mxGeometry relative="1" as="geometry">
                        <mxPoint x="240" y="-1380" as="targetPoint"/>
                    </mxGeometry>
                </mxCell>
                <mxCell id="3" value="Inicio" style="ellipse;whiteSpace=wrap;html=1;" vertex="1" parent="1">
                    <mxGeometry x="35" y="-1560" width="120" height="80" as="geometry"/>
                </mxCell>
                <mxCell id="4" value="" style="edgeStyle=none;html=1;" edge="1" parent="1" source="5" target="7">
                    <mxGeometry relative="1" as="geometry"/>
                </mxCell>
                <mxCell id="5" value="COHETE&lt;div&gt;XX_COHETE=210&lt;/div&gt;&lt;div&gt;YY_COHETE=300&lt;/div&gt;&lt;div&gt;ALTURA_COHETE=32&lt;/div&gt;&lt;div&gt;ANCHURA_COHETE=32&lt;/div&gt;&lt;div&gt;MOVIMIENTO_XX_COHETE=0&lt;/div&gt;&lt;div&gt;&lt;br&gt;&lt;/div&gt;" style="shape=label;whiteSpace=wrap;html=1;boundedLbl=1;rounded=0;" vertex="1" parent="1">
                    <mxGeometry y="-1230" width="180" height="150" as="geometry"/>
                </mxCell>
                <mxCell id="6" value="" style="edgeStyle=none;html=1;" edge="1" parent="1" source="7" target="11">
                    <mxGeometry relative="1" as="geometry"/>
                </mxCell>
                <mxCell id="7" value="PLANETAS&lt;div&gt;XX_PLANETA=randint(30,130)&lt;/div&gt;&lt;div&gt;YY_PLANETA=20&lt;/div&gt;&lt;div&gt;ALTURA_PLANETA=32&lt;/div&gt;&lt;div&gt;ANCHURA_PLANETA=32&lt;/div&gt;&lt;div&gt;XX_ENTRE_PLANETAS=350&lt;/div&gt;&lt;div&gt;YY_ENTRE_PLANETA=125&lt;/div&gt;&lt;div&gt;VELOCIDAD_PLANETAS=2&lt;/div&gt;&lt;div&gt;&lt;br&gt;&lt;/div&gt;" style="shape=label;whiteSpace=wrap;html=1;boundedLbl=1;rounded=0;" vertex="1" parent="1">
                    <mxGeometry y="-1040" width="190" height="190" as="geometry"/>
                </mxCell>
                <mxCell id="8" value="" style="edgeStyle=none;html=1;" edge="1" parent="1" source="9" target="5">
                    <mxGeometry relative="1" as="geometry"/>
                </mxCell>
                <mxCell id="9" value="ANCHURA_VENTANA=600&lt;div&gt;&lt;font style=&quot;color: rgb(0, 0, 0);&quot;&gt;ALTURA_VENTANA=600&lt;/font&gt;&lt;/div&gt;&lt;div&gt;&lt;font style=&quot;color: rgb(0, 0, 0);&quot;&gt;COLOR_FONDO=(255,255,250)&lt;/font&gt;&lt;/div&gt;&lt;div&gt;&lt;font color=&quot;#000000&quot;&gt;PANTALLA=pygame.display.set_mode((ALTURA_VENTANA, ANCHURA_VENTANA))&lt;/font&gt;&lt;/div&gt;" style="rounded=0;whiteSpace=wrap;html=1;" vertex="1" parent="1">
                    <mxGeometry x="-75" y="-1370" width="340" height="110" as="geometry"/>
                </mxCell>
                <mxCell id="10" value="" style="edgeStyle=none;html=1;" edge="1" parent="1" source="11" target="13">
                    <mxGeometry relative="1" as="geometry"/>
                </mxCell>
                <mxCell id="11" value="&lt;div&gt;&lt;font style=&quot;color: rgb(0, 0, 0);&quot;&gt;&lt;br&gt;&lt;/font&gt;&lt;/div&gt;&lt;font style=&quot;color: rgb(0, 0, 0);&quot;&gt;&lt;div&gt;&lt;font style=&quot;color: rgb(0, 0, 0);&quot;&gt;Puntos y otros&lt;/font&gt;&lt;/div&gt;&lt;div&gt;&lt;font style=&quot;color: rgb(0, 0, 0);&quot;&gt;&lt;br&gt;&lt;/font&gt;&lt;/div&gt;PUNTOS=0&lt;/font&gt;&lt;div&gt;&lt;font style=&quot;color: rgb(0, 0, 0);&quot;&gt;FUENTE=pygame.font.Font(none,24)&lt;/font&gt;&lt;/div&gt;&lt;div&gt;&lt;font style=&quot;color: rgb(0, 0, 0);&quot;&gt;MARCADOR=FUENTE.render(&quot;0 puntos&quot;, 1, (255,0,0))&lt;/font&gt;&lt;/div&gt;" style="rounded=0;whiteSpace=wrap;html=1;" vertex="1" parent="1">
                    <mxGeometry x="-55" y="-830" width="300" height="100" as="geometry"/>
                </mxCell>
                <mxCell id="12" value="" style="edgeStyle=none;html=1;" edge="1" parent="1" source="13" target="15">
                    <mxGeometry relative="1" as="geometry"/>
                </mxCell>
                <mxCell id="13" value="IMAGES&lt;div&gt;&lt;br&gt;&lt;/div&gt;&lt;div&gt;IMG_COHETE=pygame.image.load(&quot;img/COHETE.png&quot;)&lt;/div&gt;&lt;div&gt;IMG_PLANETA_IZQUIERDO=pygame.image.load(&quot;img/PLANETA.png&quot;)&lt;/div&gt;&lt;div&gt;IMG_PLANETA_DERECHO=pygame.image.load(&quot;img/PLANETA.png&quot;)&lt;/div&gt;&lt;div&gt;&lt;br&gt;&lt;/div&gt;" style="rounded=0;whiteSpace=wrap;html=1;" vertex="1" parent="1">
                    <mxGeometry x="-105" y="-700" width="400" height="91" as="geometry"/>
                </mxCell>
                <mxCell id="14" value="" style="edgeStyle=none;html=1;" edge="1" parent="1" source="15" target="18">
                    <mxGeometry relative="1" as="geometry"/>
                </mxCell>
                <mxCell id="15" value="pygame.display.set_caption(&quot;PRIMER JUEGO&quot;)" style="rounded=0;whiteSpace=wrap;html=1;" vertex="1" parent="1">
                    <mxGeometry x="-10" y="-560" width="210" height="60" as="geometry"/>
                </mxCell>
                <mxCell id="16" style="edgeStyle=none;html=1;entryX=0.5;entryY=0;entryDx=0;entryDy=0;" edge="1" parent="1" source="18" target="21">
                    <mxGeometry relative="1" as="geometry">
                        <Array as="points">
                            <mxPoint x="280" y="-400"/>
                        </Array>
                    </mxGeometry>
                </mxCell>
                <mxCell id="17" style="edgeStyle=none;html=1;entryX=0.5;entryY=0;entryDx=0;entryDy=0;" edge="1" parent="1" source="18" target="32">
                    <mxGeometry relative="1" as="geometry">
                        <mxPoint x="-150" y="-400" as="targetPoint"/>
                        <Array as="points">
                            <mxPoint x="-150" y="-400"/>
                        </Array>
                    </mxGeometry>
                </mxCell>
                <mxCell id="18" value="event.type==pygame.KEYDOWM:&lt;span style=&quot;white-space: pre;&quot;&gt;&#x9;&lt;/span&gt;" style="rhombus;whiteSpace=wrap;html=1;" vertex="1" parent="1">
                    <mxGeometry x="-20" y="-470" width="230" height="140" as="geometry"/>
                </mxCell>
                <mxCell id="19" style="edgeStyle=none;html=1;entryX=0.5;entryY=0;entryDx=0;entryDy=0;" edge="1" parent="1" source="21" target="23">
                    <mxGeometry relative="1" as="geometry">
                        <Array as="points">
                            <mxPoint x="465" y="-320"/>
                        </Array>
                    </mxGeometry>
                </mxCell>
                <mxCell id="20" style="edgeStyle=none;html=1;endArrow=none;endFill=0;" edge="1" parent="1" source="21">
                    <mxGeometry relative="1" as="geometry">
                        <mxPoint x="140" y="-150" as="targetPoint"/>
                        <Array as="points">
                            <mxPoint x="140" y="-320"/>
                        </Array>
                    </mxGeometry>
                </mxCell>
                <mxCell id="21" value="event.key==pygame.K_Escape:" style="rhombus;whiteSpace=wrap;html=1;" vertex="1" parent="1">
                    <mxGeometry x="175" y="-360" width="210" height="80" as="geometry"/>
                </mxCell>
                <mxCell id="22" style="edgeStyle=none;html=1;endArrow=none;endFill=0;" edge="1" parent="1" source="23">
                    <mxGeometry relative="1" as="geometry">
                        <mxPoint x="465" y="-150" as="targetPoint"/>
                    </mxGeometry>
                </mxCell>
                <mxCell id="23" value="PARAR_JUEGO= True" style="rounded=0;whiteSpace=wrap;html=1;" vertex="1" parent="1">
                    <mxGeometry x="390" y="-270" width="150" height="60" as="geometry"/>
                </mxCell>
                <mxCell id="24" style="edgeStyle=none;html=1;entryX=0.5;entryY=0;entryDx=0;entryDy=0;" edge="1" parent="1" source="26" target="28">
                    <mxGeometry relative="1" as="geometry">
                        <Array as="points">
                            <mxPoint x="485" y="-40"/>
                        </Array>
                    </mxGeometry>
                </mxCell>
                <mxCell id="25" style="edgeStyle=none;html=1;endArrow=none;endFill=0;" edge="1" parent="1">
                    <mxGeometry relative="1" as="geometry">
                        <mxPoint x="360" y="200" as="targetPoint"/>
                        <mxPoint x="220" y="-45" as="sourcePoint"/>
                        <Array as="points">
                            <mxPoint x="180" y="-45"/>
                            <mxPoint x="180" y="200"/>
                        </Array>
                    </mxGeometry>
                </mxCell>
                <mxCell id="26" value="event.key==pygame.K_RIGHT:" style="rhombus;whiteSpace=wrap;html=1;" vertex="1" parent="1">
                    <mxGeometry x="200" y="-90" width="200" height="90" as="geometry"/>
                </mxCell>
                <mxCell id="27" style="edgeStyle=none;html=1;endArrow=none;endFill=0;" edge="1" parent="1" source="28">
                    <mxGeometry relative="1" as="geometry">
                        <mxPoint x="340" y="200" as="targetPoint"/>
                        <Array as="points">
                            <mxPoint x="485" y="200"/>
                        </Array>
                    </mxGeometry>
                </mxCell>
                <mxCell id="28" value="&lt;span style=&quot;white-space: pre;&quot;&gt;&#x9;&lt;/span&gt;MOVIMIENTO_XX_COHETE=4" style="rounded=0;whiteSpace=wrap;html=1;" vertex="1" parent="1">
                    <mxGeometry x="360" width="250" height="60" as="geometry"/>
                </mxCell>
                <mxCell id="29" value="" style="endArrow=none;html=1;" edge="1" parent="1">
                    <mxGeometry width="50" height="50" relative="1" as="geometry">
                        <mxPoint x="140" y="-150" as="sourcePoint"/>
                        <mxPoint x="470" y="-150" as="targetPoint"/>
                    </mxGeometry>
                </mxCell>
                <mxCell id="30" value="" style="endArrow=classic;html=1;" edge="1" parent="1">
                    <mxGeometry width="50" height="50" relative="1" as="geometry">
                        <mxPoint x="300" y="-150" as="sourcePoint"/>
                        <mxPoint x="300" y="-90" as="targetPoint"/>
                    </mxGeometry>
                </mxCell>
                <mxCell id="31" style="edgeStyle=none;html=1;" edge="1" parent="1" source="32">
                    <mxGeometry relative="1" as="geometry">
                        <mxPoint x="20" y="-210" as="targetPoint"/>
                        <Array as="points">
                            <mxPoint x="20" y="-290"/>
                        </Array>
                    </mxGeometry>
                </mxCell>
                <mxCell id="32" value="event.type==pygame.KEYUP:" style="rhombus;whiteSpace=wrap;html=1;" vertex="1" parent="1">
                    <mxGeometry x="-260" y="-330" width="230" height="80" as="geometry"/>
                </mxCell>
                <mxCell id="33" value="MOVIMIENTO_XX_COHETE=-4" style="rounded=0;whiteSpace=wrap;html=1;" vertex="1" parent="1">
                    <mxGeometry x="-90" y="-210" width="180" height="60" as="geometry"/>
                </mxCell>
                <mxCell id="34" value="" style="endArrow=classic;html=1;entryX=0.6;entryY=1.033;entryDx=0;entryDy=0;entryPerimeter=0;" edge="1" parent="1" target="33">
                    <mxGeometry width="50" height="50" relative="1" as="geometry">
                        <mxPoint x="-260" y="-290" as="sourcePoint"/>
                        <mxPoint x="-210" y="-340" as="targetPoint"/>
                        <Array as="points">
                            <mxPoint x="-260" y="-120"/>
                            <mxPoint x="20" y="-120"/>
                        </Array>
                    </mxGeometry>
                </mxCell>
                <mxCell id="35" value="" style="endArrow=classic;html=1;" edge="1" parent="1">
                    <mxGeometry width="50" height="50" relative="1" as="geometry">
                        <mxPoint x="-150" y="-120" as="sourcePoint"/>
                        <mxPoint x="320" y="200" as="targetPoint"/>
                        <Array as="points">
                            <mxPoint x="-150" y="280"/>
                            <mxPoint x="320" y="280"/>
                        </Array>
                    </mxGeometry>
                </mxCell>
                <mxCell id="36" value="" style="endArrow=classic;html=1;" edge="1" parent="1" target="37">
                    <mxGeometry width="50" height="50" relative="1" as="geometry">
                        <mxPoint x="50" y="280" as="sourcePoint"/>
                        <mxPoint x="50" y="360" as="targetPoint"/>
                    </mxGeometry>
                </mxCell>
                <mxCell id="37" value="" style="rhombus;whiteSpace=wrap;html=1;" vertex="1" parent="1">
                    <mxGeometry x="10" y="370" width="80" height="80" as="geometry"/>
                </mxCell>
                <mxCell id="38" value="" style="endArrow=classic;html=1;" edge="1" parent="1" target="39">
                    <mxGeometry width="50" height="50" relative="1" as="geometry">
                        <mxPoint x="50" y="450" as="sourcePoint"/>
                        <mxPoint x="50" y="480" as="targetPoint"/>
                    </mxGeometry>
                </mxCell>
                <mxCell id="41" value="" style="edgeStyle=none;html=1;" edge="1" parent="1" source="39" target="40">
                    <mxGeometry relative="1" as="geometry"/>
                </mxCell>
                <mxCell id="39" value="" style="shape=parallelogram;perimeter=parallelogramPerimeter;whiteSpace=wrap;html=1;fixedSize=1;" vertex="1" parent="1">
                    <mxGeometry x="-10" y="490" width="120" height="60" as="geometry"/>
                </mxCell>
                <mxCell id="40" value="" style="rhombus;whiteSpace=wrap;html=1;" vertex="1" parent="1">
                    <mxGeometry x="10" y="600" width="80" height="80" as="geometry"/>
                </mxCell>
            </root>
        </mxGraphModel>
    </diagram>
</mxfile>